# xmcd CD database file
#
# Track frame offsets:
#	182
#	40257
#	74340
#	100875
#	121380
#	166130
#	200855
#	239300
#
# Disc length: 4000 seconds
#
# Revision: 2
# Processed by: cddbd v1.5.2PL0 Copyright (c) Steve Scherf et al.
# Submitted via: CDex 1.51
#
DISCID=6e0f9e08
DTITLE=Sonny Rollins - Vol. 044 - Village Vanguard, November 3, 1957
DYEAR=1966
DGENRE=Jazz
TTITLE0=A Night In Tunesia
TTITLE1=Old Devil Moon
TTITLE2=Striver's Row
TTITLE3=I Can't Get Started
TTITLE4=I've Got You Under My Skin
TTITLE5=Softly As In a Morning Sunrise
TTITLE6=Sonnymoon For Two
TTITLE7=What Is This Thing Called Love
EXTD=YEAR: 1966
EXTT0=
EXTT1=
EXTT2=
EXTT3=
EXTT4=
EXTT5=
EXTT6=
EXTT7=
PLAYORDER=
